<svg version="1.2" xmlns="http://www.w3.org/2000/svg" viewBox="0 0 1000 1000" width="1000" height="1000"><style>.a{fill:#99c6b6}.b{fill:#fde8a0}.c{fill:#c0e1c0}.d{fill:#ef8176}.e{fill:#90c2b0}.f{fill:#f9cd7b}.g{fill:#fbcf78}.h{fill:#bfe0bf}.i{fill:#fbfcfa}.j{fill:#fcfcfa}.k{fill:#73a99a}.l{fill:#fbce79}.m{fill:#fbe9b3}.n{fill:#fdf5f5}.o{fill:#fdf6f5}.p{fill:#fdf7f7}.q{fill:#fdf6f6}.r{fill:#fcfdfc}.s{fill:#ed7c71}</style><path class="a" d="m662.1 138.5c3.6 0 7.2 0 10.9 0 2.6 2 5.1 4.1 7.8 6.2 0.5 7.4 0.5 7.4 0 14 5.4-0.7 5.4-0.7 10.9-1.5q10.4-0.2 20.8-0.2c3.6 0 7.2 0 11 0 8.8 0.1 17.2 0.6 25.9 1.7q7.1 1.7 14.1 3.7c2.5 0.7 4.9 1.4 7.4 2.2 6.9 2 13.8 4.2 20.6 6.6 3 1 6.1 1.9 9.2 2.9 9.2 3.2 17.8 7.1 26.7 11.2q9.3 3.1 18.7 6.2c3.6 1.5 7.2 3.1 10.9 4.7 14.1 4.7 28.1 9.1 42.8 11.7 14.8 1.6 29.7 1.6 44.6 0.7q7-1.4 14-3.1c7.4-0.6 7.4-0.6 14 0 3.9 3.1 3.9 3.1 7.8 6.3 0.7 6.7 0.7 6.7 0 15.6q-1.3 11.7-3.1 23.4-0.7 0.7-1.5 1.5-1.7 10.1-3.2 20.3c-0.6 4-1.2 8.1-1.8 12.2-3.1 20.5-6.1 41-8.4 61.6-1.7 14.7-4.1 29.1-7.1 43.7-1.5 7.4-1.5 7.4-1.9 15.5-0.4 2.4-0.7 4.9-1 7.4-2.1 2.5-4.1 5.1-6.3 7.8-3.6 1.5-7.2 3.1-10.9 4.6-8.1 0.5-16.2 0.6-24.4 0.5-4.3 0-8.6 0-13 0-15.7-0.6-30.3-3-45.6-6.3-13.8-3.3-27.1-7.7-40.2-12.9q-7.9-3.8-15.6-7.8-6.2-2.4-12.5-4.6c-4.2-1.8-4.2-1.8-8.6-3.7-15.7-6.5-30.7-12.5-47.2-16.4-18.7-3-37.6-2.4-56.5-1.8q-10.1 0.7-20.2 1.6c0 2.5 0 5.1 0 7.8 2.2-0.1 4.4-0.1 6.7-0.2 2.9 0 5.8-0.1 8.8-0.1 2.9-0.1 5.8-0.1 8.8-0.2 2.8 0.2 5.6 0.3 8.4 0.5 6.9 2 6.9 2 12.5 4.7 6 5.3 6 5.3 10.9 10.9 1 2 2.1 4.1 3.1 6.2 0.7 9.3 1 17.3 0 26.5-1.4 3.8-2.7 7.5-4.2 11.3-5.2 8.2-9.8 14.5-16.3 21.4-6.4 6-12.5 10.7-19.8 15.6-9.6 4.8-9.6 4.8-15.9 6.8-7.2 2.3-7.2 2.3-17.1 7.3-1 3.3-2 6.6-3 10 0 2.8-0.1 5.7-0.1 8.7 3.6 0.5 7.2 1.1 10.9 1.6 7 2.6 7 2.6 14.1 6.2 2.8 2 2.8 2 5.7 4 2.6 2.7 2.6 2.7 5.2 5.4 5.2 8.7 5.2 8.7 9.3 17.1 1.9 9.6 1.9 18.5 2 28.2 0 3.6 0.1 7.3 0.1 11-0.5 10.8-0.5 10.8-2.6 20.8-3.8 12.7-8.5 24.8-13.9 36.8-5.4 9.6-11.4 17.9-18.3 26.5-6.4 7.1-13 14-20.3 20.2-3.4 1.8-6.8 3.6-10.3 5.4-2.8 1.8-5.6 3.7-8.4 5.5-3.2 10.3-3.2 10.3-4.7 21.9-3.6 10.8-7.3 20.8-12.4 31-6 10.3-12.6 19.7-20.3 28.8-7.8 8.8-15.9 16.9-25 24.4-17.2 11.9-35.1 21.3-54.2 29.8-24 8.6-48.6 15.6-73.7 20.1-29.1 4.3-57.9 5.1-87.2 5.2-3.2 0-6.4 0-9.7 0-17.4-0.1-34.1-1.1-51.3-3.6-2.7-0.4-5.4-0.7-8.2-1.1-22-3-42.5-8.7-63.6-15.4-20.8-7.5-41-17-60-28.3-19-12.3-35.9-27-52.2-42.6-12.5-14.3-23.9-29.4-33.7-45.7-8.9-16.2-15.7-32.8-21.5-50.4-4.7-15.5-7.2-30.9-9.1-47-1.6-18.3-2.1-36.1-0.4-54.4 2.3-18.6 5.1-37.1 10.1-55.1 4.4-12.5 4.4-12.5 9.4-23.4 5.2-8.6 5.2-8.6 10.9-15.6 6.4-6.3 6.4-6.3 12.4-10.9 3.9-1.6 3.9-1.6 7.8-3.2 7.3-0.5 7.3-0.5 15.6 0 8.5 2.4 8.5 2.4 17.2 6.3 7.9 5.3 15.3 10.9 22.7 16.9 11.1 8.8 11.1 8.8 22.9 16.7 6 2.4 6 2.4 12.8 4.2 9.4 1.3 18.6 1.8 28.1 1.7 7.2-0.5 13.8-1.7 20.8-3.3 10.7-2.9 21.1-6 31.5-9.7-4.3-4.2-4.3-4.2-8.7-8.4-5.8-5.9-10.9-11.5-15.9-18.1-1.7-2.6-3.3-5.2-5-7.8-1.8-2.8-3.6-5.6-5.5-8.5-5.5-10.4-10-20.7-13.9-31.8-4.3-14-7.1-27.8-8.7-42.4-0.9-14.1-0.9-28 0-42.1 2.4-16.1 6.3-31.3 11.4-46.8 6.8-15.1 14-29 23.5-42.5 8.7-10.8 17.3-21.3 27.8-30.5 11-9 22.5-16.7 35-23.5 12.4-6 25-11.2 38-15.8 11.5-3.1 22.5-5.2 34.3-6.2 42.1-1.3 42.1-1.3 61.7 1.7 18 3.6 35.7 8.4 52.8 14.9 13.9 5.9 27.1 12.9 39.9 20.8 10.3 7.4 19.9 15.4 29.3 24 8 8.8 15.5 17.6 22.2 27.5 7.1 11.8 13.2 23.9 18.5 36.6 2.5 7 4.7 13.9 6.4 21.1q1.2 8.6 2.2 17.3c0.9 8.2 0.9 8.2 2.5 15.4 1.8 2.5 3.6 5.1 5.5 7.6 7.9 5.6 15.8 11 24.2 15.8 2 0.5 4.1 1.1 6.2 1.6 0.3-4.9 0.3-4.9 0.5-9.9 1-14.1 2.8-28 4.8-42 2.4-17.8 4.7-35.7 6.6-53.6 1.6-14.5 3.5-28.9 5.7-43.4 1.1-7 2-14 2.9-21.1 1.3-10.9 1.3-10.9 2.9-17.2 0.2-3.9 0.5-7.9 0.8-12 0.2-3.7 0.5-7.5 0.8-11.4q0.7-0.7 1.5-1.5c0.1-2.7 0.3-5.4 0.4-8.1 0.6-4.5 0.6-4.5 1.2-9.1 2.5-3.1 5.1-6.2 7.8-9.3z"/><path class="b" d="m415 198.8c12.8 2.2 25 5.2 37.2 9.6 15.4 6.4 29.8 13.4 43.9 22.4 10.8 8.1 20.9 16.4 30.3 26.2 7.2 8.7 13.3 17.9 19 27.7 4.7 8.8 8.5 17.3 11.5 26.8 3.3 12 5.7 23.6 6.9 36q-3 0.1-6.1 0.2c-2.6 0.4-5.2 0.9-7.9 1.3-7.5 3.8-7.5 3.8-14.1 9.4-5.8 6.2-5.8 6.2-10.9 14-3.1 5.5-3.1 5.5-6.3 11.1-6.2 10.8-6.2 10.8-10.3 16.3-1.7 1.8-3.5 3.6-5.2 5.4q-6.9 4.6-14.2 8.7-7 4.1-13.9 8.4c-2.6 2.6-5.1 5.2-7.8 7.8q-1.5 1.6-3.1 3.1c-1 2.6-2.1 5.2-3.1 7.8 0 3.6 0 7.2 0 11 2.6 8 2.6 8 6.2 15.6 3.1 3.8 3.1 3.8 6.2 7.8 6.4 4.2 6.4 4.2 14.1 7.8 12.8 4.7 25.6 8 39 10.9-1.1 2.5-2.1 5.1-3.1 7.8-0.8 8.3-0.8 8.3 0 17.1 2.5 6.9 2.5 6.9 6.2 14.1q4.7 7.2 9.7 14.3c10.6 15.2 20 30.2 27.5 47.2 3.3 8.6 3.3 8.6 6.5 19.6 0.3 2.3 0.5 4.7 0.8 7.1-0.2 2.8-0.5 5.6-0.8 8.5-4.9 11.2-4.9 11.2-11 21.8-1.4 2.1-2.8 4.1-4.3 6.2-5 4.7-5 4.7-12.9 9.9-7.7 4.2-7.7 4.2-15.5 7.3-8.7 0.4-16.9 0.2-25.5-0.9-7.3-2.2-7.3-2.2-18.1-7.1-11-6-11-6-19.3-12.1-2.4-2.1-4.8-4.2-7.3-6.4-2.5-2.2-4.9-4.3-7.5-6.6-2.2-2.4-4.3-4.9-6.5-7.5q-4.2-10-7.8-20.2c-4.2-8.2-4.2-8.2-9.4-15.6-6.5-7.9-13.1-14.8-20.7-21.5-8.5-5.8-16.7-10.3-26.1-14.4-9.8-2.6-19.5-4.6-29.6-6.2-15.1-0.4-30.1-0.4-45.1 1.6-21.6 4.1-42.8 10.7-63.7 17.3-8.5 2.5-16.6 4.6-25.3 6-12.6 0.9-24.9 0.8-37.5 0-14.9-2.5-29.3-6.1-43.6-10.9-8.7-0.9-8.7-0.9-17.2 0-2.6 2.6-5.1 5.1-7.8 7.8-1.2 7.5-1 14.4-0.8 22 0.4 3.8 0.4 3.8 0.8 7.6 3 11.2 3 11.2 7.8 20.3 1.4 1.9 2.9 3.7 4.4 5.7q1.7 2.6 3.4 5.2c0.5 9.3 0.5 9.3 0 17.2-3.1-0.5-6.2-1.1-9.4-1.6-9.2-5.2-17.1-10.9-25.2-17.8-3.7-3.5-3.7-3.5-7.5-7.1-3.2-3-3.2-3-6.5-6.1-6-6.4-6-6.4-11.6-14.4-5.8-10.1-10.3-20.2-14.7-31-1-3.1-2-6.2-3.1-9.4-0.4-7.3-0.4-7.3 0-15.6 2.7-14.8 6.6-29.1 11.5-43.3 4.1-8.1 4.1-8.1 9.3-15.5 1.9-1.7 3.8-3.4 5.7-5.1 4.1 0 8.3 0 12.5 0 8.6 5.3 16.1 11.3 23.8 17.8 9.8 7.8 19.7 13.8 30.8 19.6 7.4 3.1 7.4 3.1 14 4.7 11.4 1.9 22.3 2 33.8 1.9 8.9-0.2 8.9-0.2 19.6-2 14.3-3.6 28.6-7.5 42.9-11.4 8-2.1 15.9-3.8 24.1-5.3 5.3-0.9 5.3-0.9 10.6-1.9 3.6-1.6 7.3-3.1 11-4.7-2.6-1.8-5.1-3.7-7.7-5.5-13.7-10.1-26.9-20.2-39.1-31.9-8-9.7-14.4-19.3-20.7-30.1-5.9-11.5-10.1-23-13.6-35.4-2.2-8.6-3.8-16.2-4.7-25-0.9-17.2-1.2-34.4 1-51.5 2.3-10.8 5.9-21 10.1-31.2 6.1-13.2 13.2-25.6 21.6-37.4 7.9-9.7 16.3-18.4 25.9-26.6 7.8-6 15.8-11.3 24.5-16 12.5-6.1 25.1-11.2 38.5-15.1 26.2-5.6 53.9-6.8 80.5-3.6z"/><path class="c" d="m351.7 554.9c12.9 1.8 12.9 1.8 24.9 4.7 10.3 4.1 19.2 8.6 28.5 14.5 7.9 6.1 14.7 12.4 21.5 19.8 5.8 8.3 5.8 8.3 10.9 17.1q4 9.4 7.8 18.8c4.4 7.9 4.4 7.9 10.6 14.4 8.2 7.8 8.2 7.8 18.9 14.9 10.4 6.5 10.4 6.5 19.6 10.4 7.3 2.7 7.3 2.7 16.4 3.9 8.9 0.9 8.9 0.9 18.7 0 10-3.9 10-3.9 18.7-9.3 3.1-2.6 6.2-5.2 9.4-7.8 5.7-8.7 9.9-17 14-26.5 0.5-3.6 1-7.2 1.6-11q0.7 0 1.5 0c3.8 18.3 6.5 35.8 6.9 54.3-0.1 9-0.6 17.3-2 26.1-2.8 12.4-6.4 24.1-10.8 36-5 10-5 10-10.9 18.9-8.7 10.9-17.4 21-27.8 30.2-12.4 9-25 16.8-38.7 23.5-16.7 7.7-33.6 14.1-51.4 18.7-26.5 6.1-53.4 9-80.5 10.7-30.6 1.1-61.2-0.7-91.5-5.1-20.6-3.5-40.6-8.6-60.3-15.5-21-8.2-41.1-17.4-60.3-29.3-14.4-9.9-28-20.7-40.6-32.8-10.3-10.5-18.9-21.8-27.1-34-6.4-10.2-11.9-20.4-16.6-31.5-5.7-14.9-10.7-29.8-14.2-45.4-3.1-17.7-3.4-35.2-3.2-53.1 0.3-8.8 1-17.5 1.9-26.2 1.5 2.3 1.5 2.3 3.1 4.6 1.4 3.9 2.8 7.8 4.3 11.7 2.8 7.6 5.8 14.9 9.2 22.3 5.3 8.7 5.3 8.7 13.4 17.7 8 8.1 15.8 15.9 24.5 23.2 6.2 3.8 12.4 7.5 18.8 10.9 2 0.5 4.1 1 6.2 1.6-0.1-8-0.1-8-1.6-17.2q-4.4-7.1-9.3-14c-1.2-2.5-2.5-5-3.7-7.6-2.6-9.6-2.6-9.6-3.2-17-0.4-14.9-0.4-14.9 0.6-22.2q4.7-4.7 9.4-9.4c7.6-0.3 7.6-0.3 17.2 0q8.9 2 17.6 4.6c8.7 2.6 17 4.9 26 6.4 15.1 0.6 30.3 1 45.3-1.2 15.3-3.3 30.2-8.1 45.2-12.9 13.7-4.2 27.2-8 41.4-9.8 13.5-1.1 26.2-1.6 39.7-1.1z"/><path class="d" d="m722.9 175.9c15.7 1.4 30.8 4.4 46.1 8.4 21.3 6.3 41.8 14.9 62.4 23.2 19 7.6 38.1 14.6 58.1 18.7 22.3 2.6 45 1.6 67.4 1.2-0.9 14.3-2.1 28.4-4.4 42.6-0.6 3.4-1.1 6.9-1.7 10.5-0.6 3.6-1.2 7.1-1.7 10.8q-1.7 10.7-3.4 21.5c-0.4 3.1-0.9 6.2-1.4 9.5q-1.6 10-3 20.1c-1.7 12.3-3.7 24.6-5.7 36.8-0.7 4.3-1.4 8.6-2.1 13-0.5 3.3-1.1 6.5-1.6 9.8-10.1 2.1-19.7 2.1-30 2.3-12.5-0.1-24.3-0.4-36.6-2.2-20.4-4.6-39.6-11.7-58.9-19.6q-8.5-3.8-16.8-7.9c-10.5-5.3-21.4-9.2-32.4-13.1-3-1.1-6.1-2.3-9.3-3.4-11.8-3.6-23.6-6.1-35.9-7.5-18.8-0.8-37.4-0.1-56.2 1.5 0.7-16.7 2.1-32.9 5-49.4 1.4-9.3 2.4-18.6 3.4-28 2-16.8 4.3-33.5 6.5-50.3 0.5-3.6 1-7.3 1.5-11.1 0.8-5.3 0.8-5.3 1.5-10.7 0.4-3.2 0.8-6.4 1.3-9.6 1.1-7.7 1.1-7.7 2.7-14 14.5-4.7 30.1-3.7 45.2-3.1z"/><path class="b" d="m359.5 576.7c3.7 1.1 7.5 2.1 11.3 3.2 9.8 5.1 18.8 10.5 27.7 17.1 6.7 6.6 6.7 6.6 12.5 14 6 9.4 6 9.4 10.9 18.8 0.7 2.1 1.5 4.2 2.2 6.4 1.1 9.6 1.6 19 1.5 28.6-0.2 2.4-0.4 4.7-0.6 7.1-3.1 10.8-3.1 10.8-7.8 20.3-5.6 8.5-11.5 16-18.2 23.6-6.8 6-6.8 6-16.4 12.5-10.6 6-10.6 6-20.4 10.3-9.5 3.1-18.8 5.8-28.6 7.3-19.5 1.9-38.9 1.7-58.3 0.8-11.3-1.1-21.9-3-32.8-6.2-13.6-4.8-26.2-10.6-38.8-17.6-9.9-7.2-19.4-14.5-28.3-23-7-8.5-7-8.5-12.4-17.1-2.8-5.7-5.4-11.4-7.8-17.2q8.1 3.3 16.2 6.9c11.1 4.4 21.9 7.7 33.7 10.3 11.6 0.9 11.6 0.9 21.8 0 2.6-1.6 5.2-3.1 7.8-4.7 0-3.6 0-7.2 0-10.9-2.3-1.5-2.3-1.5-4.7-3.1-4.2-0.4-8.4-0.9-12.7-1.3-9.9-1-19.1-2.5-28.6-5.4-11.7-4.2-11.7-4.2-20.1-8.5-8.3-5.9-15.6-12-22.8-19.1-4.5-5.9-4.5-5.9-7.8-12.5-3.6-10.4-3.6-10.4-6.2-20.3 0-2.6 0-5.1 0-7.8 3.8 1.6 3.8 1.6 7.8 3.1 12 3.4 23.4 6.3 35.8 7.8q11.2 0.3 22.3 0.3c5.8 0.1 5.8 0.1 11.7 0.1 10.4-0.3 19.8-1.5 30-3.5 9.5-2.6 19-5.4 28.4-8.2 31.2-9.3 31.2-9.3 46.7-11.4 15-1.3 29.9-1.5 45-0.7z"/><path class="e" d="m351.7 554.9c12.9 1.8 12.9 1.8 24.9 4.7 10.3 4.1 19.2 8.6 28.5 14.5 7.9 6.1 14.7 12.4 21.5 19.8 5.9 8.5 10.7 16.8 15.2 26.1 3.9 11 6.3 21.6 8.2 33.2 0.5 8.7 0.5 8.7 0 17.1-1.9 9.7-4.3 18.9-7.4 28.3-3.6 7.6-3.6 7.6-9.4 16.4-6.1 7.7-11.8 14.3-19.1 20.8-11 7.7-21.9 14.3-34 20.1-11.1 4.8-21.3 8.6-33 11.3-19.8 3.4-39.6 3.4-59.6 3.4-10.1-0.4-19.4-1.2-29.3-3.1q-7.1-1.7-14.1-3.6c-4.1-1.1-8.2-2.1-12.4-3.2-13.4-4.4-25.6-10.8-37.9-17.4-7.4-4.4-7.4-4.4-16.3-10.8-3.3-3-3.3-3-6.7-6-2.6-2.2-5.2-4.3-7.8-6.5-7.8-7.6-7.8-7.6-16-17.8-4.2-6-7.5-11.7-10.4-18.4-2.9-7.5-5.4-15.2-7.9-22.8-0.2-3.3-0.4-6.6-0.5-10-0.4-3.4-0.7-6.8-1.1-10.3-2.1-2.6-4.1-5.2-6.2-7.8q-4.9-9.3-9.4-18.7c-1.6-6.3-1.6-6.3-2-13.1 0-2.6-0.1-5.2-0.1-7.9-0.1-2.6-0.2-5.2-0.3-7.9 0.3-2.3 0.6-4.6 0.8-7q4.7-4.7 9.4-9.4c7.6-0.3 7.6-0.3 17.2 0q8.9 2 17.6 4.6c8.7 2.6 17 4.9 26 6.4 15.1 0.6 30.3 1 45.3-1.2 15.3-3.3 30.2-8.1 45.2-12.9 13.7-4.2 27.2-8 41.4-9.8 13.5-1.1 26.2-1.6 39.7-1.1zm-53 25c-11 2.8-21.9 6-32.8 9.3-29.9 9-29.9 9-45.2 10.9-17.9 0.6-35.8 1-53.6-0.8-6.1-1-12.2-2.4-18.2-3.8-8.4-3.5-8.4-3.5-14-6.3q-1.5 0-3.1 0c0.2 7.1 0.2 7.1 1.5 15.6 3.2 9.7 3.2 9.7 7.8 18.7 4.9 6.9 4.9 6.9 11 12.5 6.5 5.8 6.5 5.8 14 10.9 8.8 4.9 17.2 8.9 26.7 12.1 10.4 2.2 20.7 3.3 31.2 4.3q3 0.4 6 0.8 2.3 1.5 4.7 3.1c0 3.6 0 7.2 0 10.9-2.6 1.6-5.1 3.1-7.8 4.7-9.3 0.9-9.3 0.9-21.8 0-11.2-2.5-22-5.5-32.8-9.4q-7-3.8-14-7.8c-1.6 0.8-1.6 0.8-3.1 1.6 5.1 10 10.2 19.4 16.7 28.5 6.6 7.6 6.6 7.6 14.8 14.6 9.5 7.2 18.8 13.5 29.3 19.3 10.2 4.8 20.5 8.9 31.2 12.5 9.9 2.4 18.1 3.9 28.1 4.6 21.5 0.8 43.3 1.6 64.6-1.6 11.3-2.9 21.6-6.2 32.2-10.9 6.8-3.3 6.8-3.3 15.6-9.2 7.2-6 13.8-11.9 20.1-18.8 5.2-6.5 5.2-6.5 9.4-14 4.8-9.4 4.8-9.4 7.8-20.3 0.9-9.5 0.8-18.6 0-28.1-1.3-9.2-1.3-9.2-4.7-17.2-4.9-8.7-10.4-16.5-16.6-24.4-6.9-7.2-6.9-7.2-16.6-13.5-9.9-5.7-9.9-5.7-18.5-9.2-3-0.9-6-1.8-9.1-2.8-20.2-1.6-40.9-0.6-60.8 3.2z"/><path class="f" d="m556 366.2c2.3-0.3 4.6-0.6 6.9-0.9 2.4 0.3 4.7 0.6 7.1 0.9 9.4 6.2 9.4 6.2 17.4 13 8.9 7.4 8.9 7.4 18.2 12.5 9.5 4.3 9.5 4.3 19 6.8 15.6 2.5 31.1 3.3 46.8 4.1 3.1 0.4 6.2 0.7 9.4 1 3.1 2.3 3.1 2.3 6.2 4.7 0.4 3.3 0.4 3.3 0.7 6.6-0.2 2.5-0.4 4.9-0.7 7.4-1.5 3.6-3.1 7.2-4.7 10.9-4.8 7.1-4.8 7.1-10.9 14.1-6.7 5.8-6.7 5.8-14 10.9-7.7 4.2-15.4 7.7-23.4 11.1-9.4 2.9-18.6 5.3-28.4 6.8-11.9 1.1-23.9 1.3-35.9 1.3-2.3 0-4.5 0-6.8 0-14-0.1-27.4-1.2-41.2-3.6-7.7-2.1-7.7-2.1-14.1-4.5-2.2-0.8-4.4-1.5-6.6-2.3-1.9-0.9-3.8-1.7-5.8-2.6-2.6-2-5.2-4.1-7.8-6.2-1-2.1-2.1-4.1-3.1-6.2 0-3.1 0-6.2 0-9.4 3.8-3.9 3.8-3.9 7.8-7.8 2.4-1.4 4.8-2.8 7.3-4.3 8.5-4.9 8.5-4.9 16.4-12 6.1-5.8 11.5-11.5 16.8-18 4.1-6.7 7.9-13.5 11.8-20.3 1.2-2.1 2.5-4.1 3.8-6.2 2.6-2.6 5.2-5.2 7.8-7.8z"/><path class="g" d="m155.2 665.6c12.5 5.1 25 10.3 37.4 15.6 1.8 1.6 3.5 3.3 5.4 4.9 6.1 5.2 11.8 9.2 18.8 13.3 8.5 4.6 16.3 7.9 25.5 11.3 13.6 3.5 26.8 6.7 40.8 8 16.1 0.5 32.2 0.6 48.3 0 13.9-2.3 27.3-6.2 40.6-11 9.9-4.2 9.9-4.2 18.7-9.3 7.8-5.6 14.6-11.5 21.5-18.1 6.7-6.8 6.7-6.8 12.8-14.7-0.5 3.1-1 6.2-1.6 9.4-3.4 9.1-7.1 17.6-12.1 26-5 6.7-5 6.7-11.4 13.9-7.7 6.9-7.7 6.9-17.4 13.5-10.5 5.9-10.5 5.9-20.3 10.2-9.5 3.1-18.8 5.8-28.6 7.3-19.5 1.9-38.9 1.7-58.3 0.8-11.3-1.1-21.9-3-32.8-6.2-13.6-4.8-26.2-10.6-38.8-17.6-9.9-7.2-19.4-14.5-28.3-23-7-8.5-7-8.5-12.4-17.1-2.8-5.7-5.4-11.4-7.8-17.2z"/><path class="h" d="m627.8 531.5c3.6 0.5 7.2 1 10.9 1.6 2.8 1.5 2.8 1.5 5.6 3 1.8 1.6 3.5 3.1 5.3 4.8 4.5 7.8 4.5 7.8 7.8 15.6 1.6 7.8 1.6 7.8 2.2 16.3-0.6 11.7-0.6 11.7-2.4 19.6-3.3 12.5-7.3 24.1-12.6 35.9-5.9 9.3-5.9 9.3-14.4 19.3-8.7 8.7-8.7 8.7-15.9 14.5-1.7 1.2-3.5 2.3-5.3 3.5q-0.7 0-1.5 0c-0.9-5.9-0.9-5.9-1.9-12-3.4-20.1-7.6-40-14.2-59.4-8.8-20.3-8.8-20.3-19.8-39.3 0.5-2.1 1-4.1 1.6-6.2 5.4-2.7 5.4-2.7 12.2-5.1 2.3-0.8 4.5-1.6 6.9-2.5q2.8-0.9 5.8-1.8 2.3 0 4.7 0c0.1 5.7 0.1 11.4 0 17.2q-1.5 7-3.1 14c0 4.1 0 8.2 0 12.5 1.5 2 3.1 4.1 4.7 6.2 3.6 0 7.2 0 10.9 0q1.5-1.5 3.1-3.1c1.5-8.3 2.8-16.5 4-24.9 3.6-24.5 3.6-24.5 5.4-29.7z"/><path class="i" d="m415 198.8c12.8 2.2 25 5.2 37.2 9.6 15.4 6.4 29.8 13.4 43.9 22.4 10.8 8.1 20.9 16.4 30.3 26.2 7.4 9 13.6 18.3 19.3 28.5 3 6 5.9 12.1 8.8 18.3 0.5 2.6 1 5.1 1.5 7.8q-1.5-0.8-3.1-1.6c-1.6-3.2-3.1-6.4-4.7-9.7-4.1-8.5-8.3-15.1-13.9-22.8-6.6-8-12.8-15.2-20.4-22.1-13.1-10-26.4-18.8-41.1-26.3-13-5.9-26.3-10.4-40-14.2-14.2-2.8-28.1-3.4-42.5-3.7-12.1 0.1-23.6 0.7-35.5 3-11.8 2.9-23 6.7-34.2 11.6-10.4 5.1-20.2 10.6-29.7 17.2-10.1 7.6-19.2 16-28.2 24.9-10.1 12.3-18.5 25.2-26.4 39-6 12.7-10.3 25.5-14.1 39-3.6 17-4 34.1-4.6 51.5q-1.6-2.3-3.2-4.7c-2.3-18.7-2.3-37.3-1.5-56.2 1.2-9.5 3.3-17.2 6.2-26.5 4.9-13.2 11-25.5 18.1-37.6 5.5-8.4 11.4-16.2 18.1-23.7 8.6-8.9 17.7-16.6 27.8-23.7 10.5-6.5 21.3-11.7 32.7-16.4 9.1-3.3 17.8-6 27.3-8 23.7-3.5 48.1-4.7 71.9-1.8z"/><path class="j" d="m75.6 489.4c4.1 0 8.3 0 12.5 0 8.6 5.3 16.1 11.3 23.8 17.8 9.8 7.8 19.7 13.8 30.8 19.6 7.4 3.1 7.4 3.1 14 4.7 11.4 1.9 22.3 2 33.8 1.9 8.9-0.2 8.9-0.2 19.6-2 14.3-3.6 28.6-7.5 42.9-11.4 11.5-3 23-5.2 34.7-7.2 2.6-0.8 5.1-1.7 7.7-2.5 2.1-0.2 4.2-0.4 6.4-0.6 7.9 5 7.9 5 14 10.9q0 1.5 0 3.1c-3.6 0.6-7.1 1.3-10.8 2-20.3 3.8-40 8.7-59.8 14.5-3.2 0.9-6.4 1.9-9.7 2.8q-9.3 2.8-18.6 5.6c-13.4 2.1-26.5 2.3-40 2.1-9.3-0.5-9.3-0.5-20.3-2.1-11.8-3.9-23-8.4-34.2-14-8.4-5-16.4-10.4-24.5-16-7.1-4.8-7.1-4.8-17.6-8.9-5.7-0.7-11.4-1.2-17.2-1.6 1.1-3.1 2.1-6.2 3.2-9.3 3.1-3.1 6.1-6.2 9.3-9.4z"/><path class="i" d="m359.5 576.7c3.7 1.1 7.5 2.1 11.3 3.2 9.8 5.1 18.8 10.5 27.7 17.1 6.8 6.8 6.8 6.8 12.5 14 5.5 8.4 5.5 8.4 9.3 15.6q-0.8 2.3-1.5 4.7c-3-3.5-3-3.5-6.1-7.1-7.6-8.4-7.6-8.4-15.6-14.4-8.2-5.1-16.2-9.2-25.1-12.8-4.1-1-8.3-2-12.5-3.1-17.2-0.9-34.3-0.8-51.5 0-10.8 1.6-20.8 4.4-31.2 7.8q-11.1 3.3-22.3 6.6c-3.5 1.1-7 2.2-10.6 3.3-9.2 2.6-9.2 2.6-20.1 4.1-16.6 0.7-33.3 1.3-49.8-1.1-9.5-2.3-18.6-5.6-27.8-9.1-2.7-1.3-5.4-2.5-8.2-3.8-2-1.6-4.1-3.1-6.2-4.7 0-2.6 0-5.1 0-7.8 3.8 1.6 3.8 1.6 7.8 3.1 12 3.4 23.4 6.3 35.8 7.8q11.2 0.3 22.3 0.3c5.8 0.1 5.8 0.1 11.7 0.1 10.4-0.3 19.8-1.5 30-3.5 9.5-2.6 19-5.4 28.4-8.2 31.2-9.3 31.2-9.3 46.7-11.4 15-1.3 29.9-1.5 45-0.7z"/><path class="k" d="m429.7 333.4c7.2-0.5 7.2-0.5 15.6 0 2.2 0.8 4.3 1.6 6.6 2.5 1.9 1.2 3.9 2.5 5.9 3.8 5.2 5.3 5.2 5.3 9.3 10.9 1 2.6 2.1 5.1 3.1 7.8 0 4.1 0 8.2 0 12.5-2.4 8.7-2.4 8.7-6.2 17.1-1.8 1.8-3.5 3.7-5.4 5.6-1.8 1.2-3.6 2.5-5.5 3.8-2.6 1-5.2 2-7.8 3.1-6.9 0.5-6.9 0.5-14.1 0-5.4-2.3-5.4-2.3-10.9-4.7-2.6-2.6-5.1-5.1-7.8-7.8-2-3.6-4.1-7.2-6.2-10.9-0.9-9.2-0.9-9.2 0-18.7 1-2.5 2-5 3.1-7.6 1.5-2.1 3.1-4.3 4.7-6.5 6.5-5.4 6.5-5.4 12.5-9.3q1.5-0.8 3.1-1.6z"/><path class="l" d="m479.6 481.6q14.3 3.9 28.6 8c9.9 2.9 9.9 2.9 18.2 4.5-1.1 2.5-2.1 5.1-3.1 7.8-0.8 8.3-0.8 8.3 0 17.1 2.2 7.2 2.2 7.2 6.2 14.1q5.3 8.6 10.9 17.1c-6.5-0.9-6.5-0.9-15.6-3.1-10.1-4.7-10.1-4.7-20.3-10.9-8.4-7.3-8.4-7.3-15.6-15.6-5.6-9.1-5.6-9.1-9.3-18.7-0.6-11.3-0.6-11.3 0-20.3z"/><path class="m" d="m556 366.2c3.3-0.4 3.3-0.4 6.6-0.7 3.7 0.3 3.7 0.3 7.4 0.7 9.4 6.2 9.4 6.2 17.4 13 8.9 7.4 8.9 7.4 18.2 12.5 9.5 4.3 9.5 4.3 19 6.8 15.6 2.5 31.2 3.4 46.9 4.3 3.1 0.3 6.1 0.5 9.3 0.8q2.3 1.5 4.7 3.1c0 2.6 0 5.2 0 7.8-3.6 1.1-7.2 2.1-11 3.1-10.9 0.7-21.8 0.6-32.7 0-10.9-1.7-20.9-4.4-31.5-7.5-9.4-3.5-17.6-7.5-26.2-12.7-11.2-8.2-21.7-16.4-31.2-26.5q1.5-2.3 3.1-4.7z"/><path class="r" d="m601.2 497.2c2.6 0 5.2 0 7.8 0 0 3.6 0 7.2 0 10.9-0.5 2.6-1 5.2-1.5 7.8-7.5 3.7-7.5 3.7-17.2 7.3-3.1 1.2-6.3 2.4-9.5 3.6q-8.5 2.9-17 5.5-3.1 0.4-6.2 0.8c-6.3-6.7-6.3-6.7-10.9-14.1q-0.8-1.5-1.6-3.1c0-3.1 0-6.2 0-9.4 2.1-2 4.1-4.1 6.2-6.2 10-0.9 10-0.9 21.9-1.1q10.9-0.2 21.8-0.4c2.1-0.6 4.1-1.1 6.2-1.6z"/><text x="715" y="325" fill="#ffffff" font-family="'Comic Sans MS', 'Chalkboard SE', 'Marker Felt', cursive" font-size="168" font-weight="bold" transform="rotate(15 715 325)">A<tspan dx="-15">+</tspan></text></svg>